<svg xmlns="http://www.w3.org/2000/svg" xmlns:xlink="http://www.w3.org/1999/xlink" xmlns:sketch="http://www.bohemiancoding.com/sketch/ns" viewBox="0 0 100 125" version="1.1" x="0px" y="0px"><title>eye-fill 2</title><desc>Created with Sketch.</desc><g stroke="none" stroke-width="1" fill="none" fill-rule="evenodd" sketch:type="MSPage"><path d="M60.2825,60.2796875 C56.24,64.3221875 50.8625,66.5496875 45.14375,66.5496875 C39.425,66.5496875 34.05125,64.3221875 30.00875,60.2796875 C21.66125,51.9321875 21.66125,38.3534375 30.00875,30.0059375 C34.1825,25.8321875 39.66125,23.7471875 45.14375,23.7471875 C50.62625,23.7471875 56.10875,25.8359375 60.2825,30.0059375 C68.63,38.3534375 68.63,51.9321875 60.2825,60.2796875 M79.04,76.3859375 L64.19375,61.5396875 C72.69875,51.6659375 72.29375,36.7184375 62.93375,27.3546875 C53.1275,17.5484375 37.16375,17.5484375 27.3575,27.3546875 C17.5475,37.1646875 17.5475,53.1246875 27.3575,62.9309375 C32.10875,67.6821875 38.42375,70.2996875 45.14375,70.2996875 C51.23375,70.2996875 56.9825,68.1321875 61.5425,64.1909375 L76.38875,79.0371875 C76.75625,79.4046875 77.23625,79.5846875 77.7125,79.5846875 C78.1925,79.5846875 78.6725,79.4046875 79.04,79.0371875 C79.77125,78.3059375 79.77125,77.1171875 79.04,76.3859375" fill="#000000" sketch:type="MSShapeGroup"/></g><text x="0" y="115" fill="#000000" font-size="5px" font-weight="bold" font-family="'Helvetica Neue', Helvetica, Arial-Unicode, Arial, Sans-serif">Created by Icon Island</text><text x="0" y="120" fill="#000000" font-size="5px" font-weight="bold" font-family="'Helvetica Neue', Helvetica, Arial-Unicode, Arial, Sans-serif">from the Noun Project</text></svg>