<svg width="146" height="28" viewBox="0 0 146 28" fill="none" xmlns="http://www.w3.org/2000/svg">
<path d="M0.09375 8.45508H4.06641L7.88086 21.5332L11.7656 8.45508H15.7383L10.043 27H5.68359L0.09375 8.45508ZM17.7246 27V8.45508H21.4863V27H17.7246ZM17.4609 6.83789V2.56641H21.7324V6.83789H17.4609ZM24.668 23.2734L27.2695 21.6914C27.6797 22.2773 28.0605 22.7461 28.4121 23.0977C29.2441 23.918 30.293 24.3281 31.5586 24.3281C32.5781 24.3281 33.3047 24.1172 33.7383 23.6953C34.1367 23.3086 34.3359 22.7227 34.3359 21.9375C34.3359 21.0469 34.0488 20.3789 33.4746 19.9336C32.959 19.5469 32.4492 19.2832 31.9453 19.1426L30.293 18.668C28.3828 18.1289 27.0059 17.4023 26.1621 16.4883C25.3066 15.5625 24.8789 14.3379 24.8789 12.8145C24.8789 11.5137 25.4121 10.4238 26.4785 9.54492C27.6035 8.60742 29.2148 8.13867 31.3125 8.13867C33.1992 8.13867 34.8223 8.7832 36.1816 10.0723C36.7676 10.623 37.1367 11.0859 37.2891 11.4609L35.1094 13.1836C34.2891 12.1875 33.4688 11.5723 32.6484 11.3379C32.2266 11.209 31.6699 11.1445 30.9785 11.1445C30.2988 11.1445 29.7129 11.3203 29.2207 11.6719C28.7402 12.0234 28.5 12.5391 28.5 13.2188C28.5 14.0039 28.8457 14.6133 29.5371 15.0469C30.1465 15.4336 30.7617 15.7207 31.3828 15.9082L32.9648 16.3477C35.4492 17.0508 36.9902 18.2402 37.5879 19.916C37.834 20.5957 37.957 21.4043 37.957 22.3418C37.957 23.2676 37.6641 24.1172 37.0781 24.8906C36.5039 25.6641 35.7422 26.2617 34.793 26.6836C33.8438 27.1055 32.8828 27.3164 31.9102 27.3164C30.9492 27.3164 30.1523 27.2578 29.5195 27.1406C28.8984 27.0234 28.2949 26.8184 27.709 26.5254C26.5723 25.9512 25.5586 24.8672 24.668 23.2734ZM40.998 27V8.45508H44.7598V27H40.998ZM40.7344 6.83789V2.56641H45.0059V6.83789H40.7344ZM47.0625 11.6367V8.45508H49.8223V1.6875H53.584V8.45508H57.4688V11.6367H53.584V21.5859C53.584 22.582 53.7598 23.2676 54.1113 23.6426C54.4746 24.0059 55.0781 24.1875 55.9219 24.1875C56.2617 24.1875 56.6016 24.1641 56.9414 24.1172C57.293 24.0703 57.4688 24.041 57.4688 24.0293V26.6836C56.8359 26.9766 56.3438 27.1641 55.9922 27.2461C55.6523 27.3281 55.2305 27.3691 54.7266 27.3691C54.2344 27.3691 53.8652 27.3633 53.6191 27.3516C53.3848 27.3398 53.0918 27.2988 52.7402 27.2285C52.4004 27.1582 52.1016 27.0645 51.8438 26.9473C51.5977 26.8184 51.3398 26.6367 51.0703 26.4023C50.8008 26.168 50.5781 25.8867 50.4023 25.5586C50.0156 24.8086 49.8223 23.8359 49.8223 22.6406V11.6367H47.0625ZM62.5488 22.2188C62.5488 22.9102 62.7188 23.4141 63.0586 23.7305C63.3984 24.0352 63.8203 24.1875 64.3242 24.1875C64.8281 24.1875 65.2031 24.1582 65.4492 24.0996C65.707 24.041 65.959 23.9531 66.2051 23.8359L66.8555 23.502C67.043 23.3965 67.2539 23.25 67.4883 23.0625L67.998 22.6582C68.0918 22.5762 68.2441 22.4414 68.4551 22.2539L68.7715 21.9551V17.6133C66.1465 18.2227 64.4297 18.8789 63.6211 19.582C62.9062 20.2148 62.5488 21.0938 62.5488 22.2188ZM69.2988 27C68.9473 26.7891 68.7715 26.2441 68.7715 25.3652L68.4375 25.752C67.4297 26.8301 65.9883 27.3691 64.1133 27.3691C61.8398 27.3691 60.2812 26.5664 59.4375 24.9609C59.0039 24.1641 58.7871 23.2441 58.7871 22.2012C58.7871 21.1582 58.9688 20.2324 59.332 19.4238C59.707 18.6035 60.3105 17.8828 61.1426 17.2617C62.6543 16.1367 65.1973 15.2168 68.7715 14.502C68.7715 13.6699 68.7422 13.1602 68.6836 12.9727C68.6367 12.7852 68.5781 12.6094 68.5078 12.4453C68.4492 12.2812 68.373 12.1582 68.2793 12.0762C68.1855 11.9824 68.0684 11.8828 67.9277 11.7773C67.7871 11.6719 67.623 11.5957 67.4355 11.5488C66.9785 11.4316 66.4688 11.373 65.9062 11.373C65.3555 11.373 64.834 11.4609 64.3418 11.6367C63.8613 11.8008 63.4746 11.9883 63.1816 12.1992C62.9004 12.4102 62.6426 12.6562 62.4082 12.9375C62.1035 13.3125 61.8867 13.6406 61.7578 13.9219L59.2969 12.4102C59.8125 11.3438 60.2578 10.6348 60.6328 10.2832C61.0078 9.91992 61.377 9.60938 61.7402 9.35156C62.1035 9.09375 62.4902 8.88867 62.9004 8.73633C63.8848 8.37305 64.8867 8.19141 65.9062 8.19141C66.9258 8.19141 67.7344 8.25 68.332 8.36719C68.9414 8.47266 69.5156 8.67187 70.0547 8.96484C70.6055 9.24609 71.0566 9.62695 71.4082 10.1074C72.1582 11.1504 72.5332 12.6738 72.5332 14.6777V24.3809C72.5332 24.709 72.5918 25.1719 72.709 25.7695C72.8379 26.3672 72.9551 26.7773 73.0605 27H69.2988ZM76.2598 27.0527V0.369141H80.0215V27.0527H76.2598ZM83.2031 23.2734L85.8047 21.6914C86.2148 22.2773 86.5957 22.7461 86.9473 23.0977C87.7793 23.918 88.8281 24.3281 90.0938 24.3281C91.1133 24.3281 91.8398 24.1172 92.2734 23.6953C92.6719 23.3086 92.8711 22.7227 92.8711 21.9375C92.8711 21.0469 92.584 20.3789 92.0098 19.9336C91.4941 19.5469 90.9844 19.2832 90.4805 19.1426L88.8281 18.668C86.918 18.1289 85.541 17.4023 84.6973 16.4883C83.8418 15.5625 83.4141 14.3379 83.4141 12.8145C83.4141 11.5137 83.9473 10.4238 85.0137 9.54492C86.1387 8.60742 87.75 8.13867 89.8477 8.13867C91.7344 8.13867 93.3574 8.7832 94.7168 10.0723C95.3027 10.623 95.6719 11.0859 95.8242 11.4609L93.6445 13.1836C92.8242 12.1875 92.0039 11.5723 91.1836 11.3379C90.7617 11.209 90.2051 11.1445 89.5137 11.1445C88.834 11.1445 88.248 11.3203 87.7559 11.6719C87.2754 12.0234 87.0352 12.5391 87.0352 13.2188C87.0352 14.0039 87.3809 14.6133 88.0723 15.0469C88.6816 15.4336 89.2969 15.7207 89.918 15.9082L91.5 16.3477C93.9844 17.0508 95.5254 18.2402 96.123 19.916C96.3691 20.5957 96.4922 21.4043 96.4922 22.3418C96.4922 23.2676 96.1992 24.1172 95.6133 24.8906C95.0391 25.6641 94.2773 26.2617 93.3281 26.6836C92.3789 27.1055 91.418 27.3164 90.4453 27.3164C89.4844 27.3164 88.6875 27.2578 88.0547 27.1406C87.4336 27.0234 86.8301 26.8184 86.2441 26.5254C85.1074 25.9512 84.0938 24.8672 83.2031 23.2734ZM102.662 22.2188C102.662 22.9102 102.832 23.4141 103.172 23.7305C103.512 24.0352 103.934 24.1875 104.438 24.1875C104.941 24.1875 105.316 24.1582 105.562 24.0996C105.82 24.041 106.072 23.9531 106.318 23.8359L106.969 23.502C107.156 23.3965 107.367 23.25 107.602 23.0625L108.111 22.6582C108.205 22.5762 108.357 22.4414 108.568 22.2539L108.885 21.9551V17.6133C106.26 18.2227 104.543 18.8789 103.734 19.582C103.02 20.2148 102.662 21.0938 102.662 22.2188ZM109.412 27C109.061 26.7891 108.885 26.2441 108.885 25.3652L108.551 25.752C107.543 26.8301 106.102 27.3691 104.227 27.3691C101.953 27.3691 100.395 26.5664 99.5508 24.9609C99.1172 24.1641 98.9004 23.2441 98.9004 22.2012C98.9004 21.1582 99.082 20.2324 99.4453 19.4238C99.8203 18.6035 100.424 17.8828 101.256 17.2617C102.768 16.1367 105.311 15.2168 108.885 14.502C108.885 13.6699 108.855 13.1602 108.797 12.9727C108.75 12.7852 108.691 12.6094 108.621 12.4453C108.562 12.2812 108.486 12.1582 108.393 12.0762C108.299 11.9824 108.182 11.8828 108.041 11.7773C107.9 11.6719 107.736 11.5957 107.549 11.5488C107.092 11.4316 106.582 11.373 106.02 11.373C105.469 11.373 104.947 11.4609 104.455 11.6367C103.975 11.8008 103.588 11.9883 103.295 12.1992C103.014 12.4102 102.756 12.6562 102.521 12.9375C102.217 13.3125 102 13.6406 101.871 13.9219L99.4102 12.4102C99.9258 11.3438 100.371 10.6348 100.746 10.2832C101.121 9.91992 101.49 9.60938 101.854 9.35156C102.217 9.09375 102.604 8.88867 103.014 8.73633C103.998 8.37305 105 8.19141 106.02 8.19141C107.039 8.19141 107.848 8.25 108.445 8.36719C109.055 8.47266 109.629 8.67187 110.168 8.96484C110.719 9.24609 111.17 9.62695 111.521 10.1074C112.271 11.1504 112.646 12.6738 112.646 14.6777V24.3809C112.646 24.709 112.705 25.1719 112.822 25.7695C112.951 26.3672 113.068 26.7773 113.174 27H109.412ZM115.23 17.8594C115.23 14.1797 116.033 11.5605 117.639 10.002C118.904 8.75977 120.674 8.13867 122.947 8.13867C125.232 8.13867 127.02 9.09961 128.309 11.0215C128.73 11.6426 129.023 12.2227 129.188 12.7617L126.006 14.168C125.912 13.207 125.52 12.4453 124.828 11.8828C124.359 11.5078 123.779 11.3203 123.088 11.3203C120.357 11.3203 118.992 13.4473 118.992 17.7012C118.992 19.7988 119.35 21.3984 120.064 22.5C120.779 23.5898 121.822 24.1348 123.193 24.1348C124.154 24.1348 124.934 23.7832 125.531 23.0801C126.047 22.4707 126.422 21.8203 126.656 21.1289L129.539 22.3945C129.27 23.4375 128.695 24.4277 127.816 25.3652C126.586 26.666 125.01 27.3164 123.088 27.3164C117.85 27.3164 115.23 24.1641 115.23 17.8594ZM135.516 15.5391H142.02C142.02 14.625 141.861 13.834 141.545 13.166C140.936 11.9355 140.092 11.3203 139.014 11.3203C138.369 11.3203 137.801 11.4668 137.309 11.7598C136.828 12.041 136.465 12.4102 136.219 12.8672C135.75 13.7227 135.516 14.6133 135.516 15.5391ZM132.562 23.4141C132.199 22.6055 131.941 21.7793 131.789 20.9355C131.648 20.0801 131.578 19.0078 131.578 17.7188C131.578 16.418 131.73 15.1582 132.035 13.9395C132.34 12.7207 132.732 11.7539 133.213 11.0391C133.693 10.3125 134.273 9.72656 134.953 9.28125C136.113 8.51953 137.479 8.13867 139.049 8.13867C140.525 8.13867 141.814 8.57812 142.916 9.45703C144.979 11.1211 145.963 14.209 145.869 18.7207H135.34C135.34 21.0879 135.967 22.6816 137.221 23.502C137.865 23.9238 138.539 24.1348 139.242 24.1348C139.957 24.1348 140.549 24.0469 141.018 23.8711C141.486 23.6953 141.861 23.4961 142.143 23.2734C142.424 23.0508 142.682 22.793 142.916 22.5C143.232 22.0898 143.449 21.7383 143.566 21.4453L145.957 22.9922C145.09 24.5039 144.164 25.582 143.18 26.2266C142.09 26.9531 140.889 27.3164 139.576 27.3164C138.275 27.3164 137.162 27.1465 136.236 26.8066C135.322 26.4668 134.572 26.0156 133.986 25.4531C133.412 24.8906 132.938 24.2109 132.562 23.4141Z" fill="white"/>
</svg>
