<svg width="341" height="172" viewBox="0 0 341 172" fill="none" xmlns="http://www.w3.org/2000/svg">
<path d="M83.0539 154.653C46.8285 154.653 17.3566 125.181 17.3566 88.9557C17.3566 71.5441 24.2234 55.1426 36.6919 42.772C49.1352 30.4264 65.6005 23.6275 83.0539 23.6275C100.646 23.6275 117.16 30.4272 129.556 42.7738C141.934 55.1031 148.751 71.5042 148.751 88.9557C148.751 106.567 141.934 123.082 129.557 135.459C117.18 147.836 100.665 154.653 83.0539 154.653ZM83.0539 25.842C48.0494 25.842 19.5711 54.1546 19.5711 88.9557C19.5711 123.96 48.0494 152.438 83.0539 152.438C118.058 152.438 146.537 123.96 146.537 88.9557C146.537 54.1546 118.059 25.842 83.0539 25.842Z" fill="white"/>
<path d="M75.6725 154.284C75.6267 154.284 75.581 154.281 75.5348 154.275C55.0103 151.71 37.2259 140.217 26.7417 122.743C26.5642 122.447 26.5346 122.085 26.6623 121.764C26.79 121.443 27.0602 121.2 27.3928 121.107C29.1898 120.604 30.7924 120.36 32.2924 120.36C35.6821 120.36 38.0608 121.632 40.5791 122.979C42.5685 124.042 44.6254 125.142 47.5323 125.9C55.3968 128.184 55.9991 132.135 56.4834 135.31C56.7465 137.037 56.9547 138.401 58.2517 139.373C58.8326 139.809 59.6686 140.03 60.736 140.03C62.7279 140.03 65.1366 139.282 67.0721 138.68C67.7973 138.455 68.4838 138.242 69.0714 138.092C69.8048 137.825 76.8056 135.32 81.0708 135.32C82.9716 135.32 84.1851 135.854 84.6789 136.908C85.461 138.577 83.9795 140.656 82.7973 142.075C81.1903 144.111 79.8668 145.523 78.8031 146.658C76.3409 149.285 75.8707 149.786 76.7034 152.754C76.7573 152.885 76.7872 153.028 76.7872 153.177C76.7872 153.789 76.2915 154.285 75.6799 154.285C75.6769 154.284 75.6747 154.284 75.6725 154.284ZM29.4316 122.887C39.3748 138.612 55.5618 149.079 74.2357 151.862C73.7422 148.818 74.9384 147.543 77.1876 145.143C78.2225 144.039 79.5106 142.665 81.0781 140.679C82.8693 138.529 82.6767 137.852 82.6737 137.846C82.6722 137.843 82.4187 137.534 81.0711 137.534C77.8929 137.534 72.0964 139.322 69.7871 140.187C69.7479 140.202 69.7077 140.215 69.6667 140.225C69.1271 140.36 68.4484 140.571 67.7294 140.794C65.6511 141.44 63.0642 142.244 60.736 142.244C59.1784 142.244 57.8959 141.874 56.923 141.144C54.9018 139.628 54.5789 137.511 54.294 135.643C53.8448 132.698 53.4207 129.915 46.944 128.034C43.8127 127.218 41.5398 126.003 39.535 124.931C37.0724 123.614 35.127 122.573 32.2924 122.573C31.4007 122.574 30.4558 122.677 29.4316 122.887Z" fill="white"/>
<path d="M51.4837 103.843C49.7454 103.843 48.0298 102.875 46.0873 100.798C41.3523 96.0495 42.7301 90.0596 43.7363 85.6848C44.1316 83.9649 44.5051 82.3402 44.3216 81.4223C43.2266 75.9461 33.658 75.669 31.7513 75.669C27.2525 75.669 23.4369 75.2851 20.41 74.5289C19.8239 74.3823 19.4633 73.7929 19.5999 73.2042C24.439 52.3597 39.5999 35.37 60.155 27.7568C60.4946 27.6317 60.8748 27.6793 61.1722 27.8864C61.4697 28.0934 61.6469 28.4326 61.6469 28.7951C61.6469 31.0018 61.6469 34.0235 61.2708 37.4066C60.8965 40.7741 61.428 42.1622 61.9396 42.734C62.1883 43.0119 62.6541 43.3817 63.8179 43.3817C65.4821 43.3817 67.8077 42.6314 70.2695 41.8371C70.7227 41.6909 71.1826 41.5425 71.6473 41.3957C71.6687 41.389 71.6905 41.3827 71.7122 41.3772C72.0167 41.3012 72.474 41.1724 73.0409 41.0133C75.684 40.2714 80.6031 38.8903 83.8109 38.8903C84.5324 38.8903 86.7281 38.8903 87.4726 40.4715C88.2303 42.0799 86.8536 44.0383 85.7526 45.3714C84.1379 47.3091 82.8154 48.6766 81.7525 49.7757C78.1757 53.4744 78.1757 53.4744 81.1512 62.4014C81.5299 63.4607 82.2175 64.9448 83.0133 66.6629C86.1084 73.3426 90.3474 82.4904 86.0509 86.7869C84.772 88.0658 83.9135 88.5921 83.1561 89.0561C82.1175 89.6928 81.2199 90.2427 79.1456 92.9366C74.8137 99.035 71.9193 100.262 68.6555 100.262C67.8852 100.262 67.1245 100.193 66.3195 100.121C65.4518 100.043 64.5545 99.9622 63.5717 99.9622C61.8905 99.9622 60.3267 100.202 58.6503 100.718C57.5807 101.075 56.6347 101.657 55.7201 102.219C54.3608 103.054 53.0764 103.843 51.4837 103.843ZM22.0185 72.6236C24.6896 73.175 27.9567 73.4541 31.7513 73.4541C34.8561 73.4541 45.0952 73.9974 46.4933 80.9879C46.7701 82.3727 46.3645 84.1376 45.8943 86.1813C44.9539 90.2715 43.7831 95.3623 47.6667 99.2454C47.6755 99.2543 47.6844 99.2635 47.6932 99.2727C49.1725 100.858 50.4127 101.629 51.4837 101.629C52.4504 101.629 53.4288 101.027 54.5612 100.331C55.5352 99.7326 56.6391 99.0539 57.9752 98.6088C59.8934 98.0178 61.6642 97.7466 63.5728 97.7466C64.6549 97.7466 65.6448 97.8355 66.5185 97.9141C67.2725 97.9821 67.9852 98.0455 68.6562 98.0455C70.8423 98.0455 73.1524 97.5554 77.353 91.6364C77.3611 91.6249 77.3696 91.6131 77.3781 91.602C79.7111 88.5689 80.8227 87.8879 81.9994 87.1664C82.7154 86.7275 83.3916 86.313 84.4852 85.2198C87.6877 82.0169 83.6658 73.3363 81.0043 67.5926C80.1853 65.8254 79.4782 64.2993 79.0581 63.1226C75.8408 53.4714 75.9028 52.6376 80.1606 48.2352C81.1981 47.1622 82.4892 45.8273 84.0482 43.9564C85.6153 42.0593 85.4706 41.4189 85.4688 41.4134C85.4684 41.4134 85.1916 41.1041 83.8109 41.1041C80.9084 41.1041 76.18 42.4317 73.6396 43.1447C73.0675 43.3053 72.6014 43.436 72.2832 43.5164C71.8337 43.6585 71.3885 43.8021 70.9497 43.9438C68.317 44.7931 65.8305 45.5955 63.8179 45.5955C62.2994 45.5955 61.1121 45.1293 60.2894 44.2103C59.074 42.8521 58.6864 40.6125 59.0699 37.1615C59.3486 34.6536 59.4128 32.3287 59.4276 30.4083C40.6858 37.8783 26.8277 53.505 22.0185 72.6236Z" fill="white"/>
<path d="M137.694 85.4874C136.011 85.4874 134.35 84.6101 132.467 82.7259C127.421 77.9614 128.777 71.9124 129.768 67.4959C130.138 65.8432 130.488 64.2808 130.326 63.3751C128.738 57.8462 122.388 57.6004 115.665 57.3398C109.561 57.1032 103.248 56.8585 100.552 52.2357C100.54 52.215 100.529 52.1944 100.518 52.173C98.1487 47.4346 101.871 42.4424 104.862 38.4315C106.099 36.7725 107.267 35.2057 107.885 33.8667C107.909 33.8146 107.937 33.7644 107.969 33.7165C108.621 32.7388 108.948 31.7492 109.293 30.3714C109.373 30.05 109.593 29.7813 109.892 29.6395C110.192 29.4974 110.539 29.4971 110.839 29.6388C131.423 39.348 145.454 58.4334 148.373 80.6919C148.414 81.0078 148.317 81.3267 148.107 81.5662C147.897 81.8058 147.593 81.9431 147.275 81.9431C147.066 81.9431 146.798 82.0032 146.489 82.073C146.057 82.17 145.529 82.2885 144.885 82.3092C143.83 82.6853 142.912 83.257 142.022 83.811C140.639 84.6732 139.331 85.4874 137.694 85.4874ZM102.483 51.151C104.58 54.6938 110.007 54.9046 115.75 55.1271C122.648 55.3947 130.467 55.6974 132.47 62.82C132.477 62.8473 132.484 62.8746 132.49 62.9027C132.762 64.2624 132.375 65.9856 131.928 67.9805C131.005 72.0955 129.858 77.2165 134.01 81.1381C135.454 82.5819 136.652 83.2729 137.694 83.2729C138.698 83.2729 139.696 82.651 140.852 81.9312C141.846 81.3123 142.972 80.6107 144.341 80.1545C144.454 80.1168 144.572 80.0976 144.691 80.0976C145.178 80.0976 145.578 80.0076 146.003 79.9123C146.011 79.9105 146.019 79.9087 146.027 79.9068C142.966 59.2864 130.004 41.6035 111.079 32.215C110.778 33.1757 110.415 34.0224 109.858 34.8732C109.139 36.3997 107.922 38.0307 106.637 39.7554C103.881 43.4515 100.758 47.6391 102.483 51.151Z" fill="white"/>
<path d="M102.984 151.7C102.696 151.7 102.412 151.587 102.202 151.376C101.432 150.606 100.967 150.142 100.518 149.243C98.0853 144.683 101.961 139.544 105.075 135.415C106.219 133.897 107.299 132.464 107.887 131.299C110.897 124.406 111.973 117.228 110.765 112.093C109.555 106.849 110.091 105.072 115.967 103.393C117.845 102.887 119.501 102.644 121.048 102.644C124.574 102.644 127.005 103.933 129.579 105.298C131.56 106.348 133.609 107.435 136.482 108.184C136.495 108.188 136.507 108.191 136.52 108.195C139.926 109.217 142.218 110.632 143.732 112.651C143.963 112.959 144.017 113.365 143.875 113.723C140.386 122.539 134.835 130.654 127.823 137.193C120.853 143.691 112.384 148.689 103.328 151.645C103.216 151.682 103.099 151.7 102.984 151.7ZM121.047 104.858C119.699 104.858 118.23 105.077 116.559 105.527C111.987 106.833 111.941 107.344 112.921 111.59C114.817 119.646 111.443 128.697 109.904 132.214C109.896 132.231 109.889 132.248 109.881 132.265C109.205 133.615 108.058 135.137 106.843 136.748C103.966 140.564 100.705 144.888 102.485 148.227C102.708 148.672 102.911 148.933 103.289 149.326C120.785 143.409 134.684 130.407 141.575 113.509C140.353 112.134 138.531 111.113 135.903 110.322C132.79 109.507 130.533 108.311 128.542 107.255C126.017 105.915 124.022 104.858 121.047 104.858Z" fill="white"/>
<path d="M83.0539 172C59.6416 172 37.1462 162.048 21.3361 144.695C21.1327 144.472 21.0294 144.175 21.05 143.874C21.0707 143.572 21.2139 143.292 21.4461 143.099C23.569 141.329 24.7383 139.01 24.7383 136.568C24.7383 132.294 21.0958 128.817 16.6184 128.817C14.89 128.817 13.287 129.17 12.4345 129.738C12.1779 129.909 11.8616 129.966 11.5623 129.894C11.2626 129.822 11.0065 129.628 10.8551 129.36C3.6587 116.566 0.009552 102.972 0.009552 88.9557C0.009552 69.2173 7.13438 50.1016 20.0712 35.1297C32.8405 20.3518 50.4263 10.5046 69.59 7.4021C69.886 7.35339 70.1901 7.42868 70.4307 7.60916C70.6714 7.78928 70.8283 8.05982 70.8655 8.35804C71.146 10.6028 73.1587 12.9244 76.0412 12.9244C79.1456 12.9244 81.5775 10.4925 81.5775 7.38808C81.5775 6.77651 82.0732 6.28082 82.6848 6.28082H83.0539C104.33 6.28082 124.54 14.3184 139.962 28.9135C155.306 43.4345 164.456 63.0304 165.727 84.0911C165.745 84.396 165.637 84.6946 165.428 84.9168C165.219 85.139 164.927 85.2648 164.621 85.2648C162.655 85.2648 160.931 86.9896 160.931 88.9557C160.931 91.1942 162.586 93.0156 164.621 93.0156C164.927 93.0156 165.218 93.1418 165.428 93.3637C165.637 93.5862 165.745 93.8848 165.727 94.1893C164.456 115.25 155.306 134.846 139.962 149.367C124.54 163.962 104.33 172 83.0539 172ZM23.7237 144.016C39.0717 160.408 60.6304 169.785 83.0539 169.785C125.26 169.785 160.371 137.068 163.446 95.1054C160.751 94.5248 158.716 91.9881 158.716 88.9557C158.716 86.1558 160.786 83.7357 163.446 83.1732C160.387 41.4296 125.623 8.83748 83.7127 8.49755C83.1731 12.2475 79.9384 15.1385 76.0412 15.1385C72.6925 15.1385 69.8007 12.8959 68.8998 9.76389C30.2019 16.5359 2.22407 49.6731 2.22407 88.9557C2.22407 102.248 5.60268 115.157 12.2691 127.344C13.4465 126.866 14.9668 126.602 16.6184 126.602C22.3167 126.602 26.9528 131.073 26.9528 136.568C26.9528 139.322 25.8146 141.929 23.7237 144.016Z" fill="white"/>
<path d="M76.0412 15.1385C72.04 15.1385 68.6595 11.589 68.6595 7.38771C68.6595 3.45547 72.109 0.0059967 76.0412 0.0059967C80.2425 0.0059967 83.792 3.38645 83.792 7.38771C83.792 11.6614 80.3152 15.1385 76.0412 15.1385ZM76.0412 2.22051C73.3369 2.22051 70.874 4.68342 70.874 7.38771C70.874 10.3887 73.2402 12.924 76.0412 12.924C79.1456 12.924 81.5775 10.4921 81.5775 7.38771C81.5775 4.58672 79.0423 2.22051 76.0412 2.22051Z" fill="white"/>
<path d="M164.991 95.2301C161.414 95.2301 158.716 92.5325 158.716 88.9557C158.716 85.6996 161.531 83.0503 164.991 83.0503C168.275 83.0503 171.265 85.8649 171.265 88.9557C171.265 92.7089 168.021 95.2301 164.991 95.2301ZM164.991 85.2648C162.752 85.2648 160.931 86.9205 160.931 88.9557C160.931 91.3082 162.638 93.0156 164.991 93.0156C166.911 93.0156 169.051 91.3481 169.051 88.9557C169.051 87.0582 167.078 85.2648 164.991 85.2648Z" fill="white"/>
<path d="M16.6184 146.902C10.8234 146.902 6.28401 142.363 6.28401 136.568C6.28401 131.073 10.9201 126.602 16.6184 126.602C22.3167 126.602 26.9528 131.073 26.9528 136.568C26.9528 142.363 22.4134 146.902 16.6184 146.902ZM16.6184 128.817C12.141 128.817 8.49853 132.294 8.49853 136.568C8.49853 141.121 12.0654 144.688 16.6184 144.688C21.1715 144.688 24.7383 141.121 24.7383 136.568C24.7383 132.294 21.0958 128.817 16.6184 128.817Z" fill="white"/>
<path d="M14.7737 117.745C14.3463 117.745 13.9392 117.496 13.758 117.079C10.0232 108.489 8.12944 99.0273 8.12944 88.9557C8.12944 88.3441 8.62512 87.8484 9.2367 87.8484C9.84827 87.8484 10.344 88.3441 10.344 88.9557C10.344 98.7217 12.1757 107.886 15.7883 116.196C16.0323 116.757 15.7754 117.409 15.2144 117.652C15.0708 117.715 14.921 117.745 14.7737 117.745Z" fill="white"/>
<path d="M83.0539 163.88C82.4423 163.88 81.9466 163.384 81.9466 162.773C81.9466 162.161 82.4423 161.666 83.0539 161.666C103.499 161.666 122.974 153.055 136.486 138.041C136.895 137.587 137.596 137.55 138.05 137.959C138.504 138.368 138.541 139.068 138.132 139.523C124.201 155.002 104.126 163.88 83.0539 163.88Z" fill="white"/>
<path d="M151.335 62.751C150.896 62.751 150.48 62.4874 150.307 62.0545C140.714 38.0717 118.317 20.5216 93.2491 17.3442C92.6424 17.2674 92.2127 16.7134 92.2895 16.1063C92.3666 15.4995 92.924 15.0713 93.5274 15.147C106.455 16.7857 118.817 22.0345 129.277 30.3257C139.549 38.4673 147.532 49.1542 152.363 61.2318C152.59 61.7998 152.314 62.4439 151.746 62.6712C151.611 62.7255 151.472 62.751 151.335 62.751Z" fill="white"/>
<path d="M216.168 35.9062V41.3906L211.492 42.4453C212.406 44.0859 212.863 46.1484 212.863 48.6328C212.863 52.7812 211.738 56.0273 209.488 58.3711C207.238 60.7148 204.098 61.8867 200.066 61.8867C198.895 61.8867 198.027 61.793 197.465 61.6055C197.02 62.0039 196.598 62.4492 196.199 62.9414C195.801 63.4336 195.602 64.043 195.602 64.7695C195.602 66.4102 197.02 67.2305 199.855 67.2305H205.516C208.844 67.2305 211.398 68.1328 213.18 69.9375C214.984 71.7188 215.887 74.4141 215.887 78.0234C215.887 82.5703 214.363 86.0859 211.316 88.5703C208.27 91.0547 203.887 92.2969 198.168 92.2969C193.832 92.2969 190.492 91.3477 188.148 89.4492C185.805 87.5742 184.633 84.8906 184.633 81.3984C184.633 79.2188 185.301 77.2969 186.637 75.6328C187.973 73.9922 189.824 72.7969 192.191 72.0469C190.996 71.5781 190.012 70.8516 189.238 69.8672C188.488 68.8828 188.113 67.7344 188.113 66.4219C188.113 65.625 188.23 64.9102 188.465 64.2773C188.699 63.6211 189.027 63.0117 189.449 62.4492C189.895 61.8633 190.785 61.0078 192.121 59.8828C190.504 58.8984 189.227 57.3867 188.289 55.3477C187.352 53.3086 186.883 51.0469 186.883 48.5625C186.883 44.2734 188.008 40.957 190.258 38.6133C192.508 36.2695 195.73 35.0977 199.926 35.0977C200.723 35.0977 201.637 35.1914 202.668 35.3789C203.699 35.543 204.484 35.7188 205.023 35.9062H216.168ZM193.141 80.6953C193.141 82.2422 193.621 83.4258 194.582 84.2461C195.566 85.0898 196.961 85.5117 198.766 85.5117C201.602 85.5117 203.723 84.9727 205.129 83.8945C206.559 82.8164 207.273 81.3398 207.273 79.4648C207.273 77.9883 206.887 76.9453 206.113 76.3359C205.363 75.7266 203.945 75.4219 201.859 75.4219H197.324C196.059 75.4219 195.039 75.8906 194.266 76.8281C193.516 77.7891 193.141 79.0781 193.141 80.6953ZM196.023 48.6328C196.023 53.25 197.324 55.5586 199.926 55.5586C202.457 55.5586 203.723 53.2266 203.723 48.5625C203.723 43.7812 202.457 41.3906 199.926 41.3906C197.324 41.3906 196.023 43.8047 196.023 48.6328ZM237.578 35.0977C238.727 35.0977 239.852 35.2734 240.953 35.625L239.863 44.6953C239.207 44.4609 238.352 44.3438 237.297 44.3438C235.023 44.3438 233.277 45.2461 232.059 47.0508C230.84 48.832 230.23 51.4336 230.23 54.8555V75H220.879V35.8359H228.578L229.633 41.9531H229.949C230.98 39.4922 232.105 37.7344 233.324 36.6797C234.543 35.625 235.961 35.0977 237.578 35.0977ZM259.586 75.7031C254.688 75.7031 250.82 73.9688 247.984 70.5C245.172 67.0078 243.766 62.0742 243.766 55.6992C243.766 49.2305 245.043 44.1797 247.598 40.5469C250.152 36.9141 253.715 35.0977 258.285 35.0977C262.551 35.0977 265.914 36.6562 268.375 39.7734C270.836 42.8672 272.066 47.2148 272.066 52.8164V57.8086H253.258C253.328 61.3008 254.043 63.9023 255.402 65.6133C256.762 67.3008 258.637 68.1445 261.027 68.1445C264.074 68.1445 267.191 67.1953 270.379 65.2969V72.9961C267.379 74.8008 263.781 75.7031 259.586 75.7031ZM258.215 42.3047C256.879 42.3047 255.777 43.0195 254.91 44.4492C254.043 45.8555 253.539 48.0469 253.398 51.0234H262.891C262.844 48.1641 262.41 45.9961 261.59 44.5195C260.77 43.043 259.645 42.3047 258.215 42.3047ZM292.703 75.7031C287.805 75.7031 283.938 73.9688 281.102 70.5C278.289 67.0078 276.883 62.0742 276.883 55.6992C276.883 49.2305 278.16 44.1797 280.715 40.5469C283.27 36.9141 286.832 35.0977 291.402 35.0977C295.668 35.0977 299.031 36.6562 301.492 39.7734C303.953 42.8672 305.184 47.2148 305.184 52.8164V57.8086H286.375C286.445 61.3008 287.16 63.9023 288.52 65.6133C289.879 67.3008 291.754 68.1445 294.145 68.1445C297.191 68.1445 300.309 67.1953 303.496 65.2969V72.9961C300.496 74.8008 296.898 75.7031 292.703 75.7031ZM291.332 42.3047C289.996 42.3047 288.895 43.0195 288.027 44.4492C287.16 45.8555 286.656 48.0469 286.516 51.0234H296.008C295.961 48.1641 295.527 45.9961 294.707 44.5195C293.887 43.043 292.762 42.3047 291.332 42.3047ZM330.883 75V51.6562C330.883 48.8203 330.543 46.6758 329.863 45.2227C329.184 43.7695 328.082 43.043 326.559 43.043C324.543 43.043 323.066 44.0508 322.129 46.0664C321.191 48.0586 320.723 51.4336 320.723 56.1914V75H311.371V35.8359H318.789L319.914 40.8633H320.512C321.355 39.0586 322.562 37.6523 324.133 36.6445C325.703 35.6133 327.543 35.0977 329.652 35.0977C333.215 35.0977 335.875 36.3164 337.633 38.7539C339.414 41.1914 340.305 44.7539 340.305 49.4414V75H330.883ZM198.273 153.703C194.664 153.703 191.816 151.922 189.73 148.359C187.645 144.797 186.602 139.84 186.602 133.488C186.602 127.113 187.621 122.121 189.66 118.512C191.699 114.902 194.512 113.098 198.098 113.098C199.879 113.098 201.414 113.543 202.703 114.434C204.016 115.301 205.223 116.777 206.324 118.863H206.887C206.605 115.301 206.465 112.805 206.465 111.375V98.2969H215.816V153H208.855L207.273 147.902H206.957C204.965 151.77 202.07 153.703 198.273 153.703ZM201.297 145.793C203.031 145.793 204.297 145.008 205.094 143.438C205.891 141.844 206.324 138.961 206.395 134.789V133.559C206.395 129.012 205.984 125.812 205.164 123.961C204.367 122.109 203.043 121.184 201.191 121.184C199.457 121.184 198.191 122.25 197.395 124.383C196.621 126.492 196.234 129.574 196.234 133.629C196.234 137.684 196.633 140.73 197.43 142.77C198.227 144.785 199.516 145.793 201.297 145.793ZM242.887 153L241.023 147.656H240.812C239.43 149.953 238 151.535 236.523 152.402C235.047 153.27 233.184 153.703 230.934 153.703C228.051 153.703 225.777 152.625 224.113 150.469C222.473 148.312 221.652 145.312 221.652 141.469C221.652 137.344 222.777 134.285 225.027 132.293C227.301 130.277 230.688 129.164 235.188 128.953L240.391 128.742V125.93C240.391 122.273 238.809 120.445 235.645 120.445C233.301 120.445 230.605 121.359 227.559 123.188L224.324 116.719C228.215 114.258 232.445 113.027 237.016 113.027C241.164 113.027 244.316 114.223 246.473 116.613C248.652 118.98 249.742 122.344 249.742 126.703V153H242.887ZM234.766 146.391C236.477 146.391 237.836 145.629 238.844 144.105C239.875 142.559 240.391 140.508 240.391 137.953V134.648L237.508 134.789C235.375 134.906 233.805 135.516 232.797 136.617C231.812 137.719 231.32 139.359 231.32 141.539C231.32 144.773 232.469 146.391 234.766 146.391ZM278.324 141.539C278.324 145.359 277.199 148.348 274.949 150.504C272.723 152.637 269.43 153.703 265.07 153.703C261.203 153.703 258.004 152.941 255.473 151.418V143.297C256.762 144.188 258.262 144.926 259.973 145.512C261.707 146.098 263.23 146.391 264.543 146.391C265.996 146.391 267.098 146.039 267.848 145.336C268.621 144.609 269.008 143.66 269.008 142.488C269.008 141.293 268.609 140.25 267.812 139.359C267.016 138.469 265.551 137.379 263.418 136.09C260.582 134.402 258.543 132.609 257.301 130.711C256.082 128.789 255.473 126.527 255.473 123.926C255.473 120.598 256.609 117.961 258.883 116.016C261.18 114.07 264.32 113.098 268.305 113.098C271.773 113.098 275.043 114.012 278.113 115.84L275.055 122.555C272.547 121.195 270.344 120.516 268.445 120.516C267.25 120.516 266.348 120.832 265.738 121.465C265.152 122.098 264.859 122.871 264.859 123.785C264.859 124.84 265.223 125.777 265.949 126.598C266.699 127.418 268.082 128.438 270.098 129.656C272.535 131.133 274.246 132.387 275.23 133.418C276.215 134.449 276.977 135.621 277.516 136.934C278.055 138.246 278.324 139.781 278.324 141.539ZM303.742 153V129.656C303.742 123.914 302.301 121.043 299.418 121.043C297.262 121.043 295.75 122.18 294.883 124.453C294.016 126.703 293.582 129.949 293.582 134.191V153H284.23V98.2969H293.582V110.461C293.582 112.031 293.441 114.832 293.16 118.863H293.652C295.527 115.02 298.41 113.098 302.301 113.098C305.887 113.098 308.594 114.316 310.422 116.754C312.25 119.168 313.164 122.73 313.164 127.441V153H303.742Z" fill="white"/>
</svg>
