<svg xmlns="http://www.w3.org/2000/svg" xmlns:xlink="http://www.w3.org/1999/xlink" version="1.1" x="0px" y="0px" viewBox="0 0 95 118.75" enable-background="new 0 0 95 95" xml:space="preserve"><path d="M47.5,5.046C24.091,5.046,5.046,24.091,5.046,47.5S24.091,89.954,47.5,89.954S89.954,70.909,89.954,47.5  S70.909,5.046,47.5,5.046z M57.929,84.147c-0.013-0.252-0.027-0.563-0.027-0.963c0-0.617,0.056-1.246,0.46-1.282l1.072-1.839  c0.756-1.3,0.781-1.851,0.819-2.686c0.018-0.396,0.035-0.842,0.132-1.443l-0.653-0.815V74.48l-1.173-1.029h-0.637l-2.244-1.249  l-0.025-0.107c-0.002-0.009-0.24-0.983-0.721-1.944c-0.408-0.819-0.399-1.042-0.374-1.699c0.008-0.194,0.016-0.43,0.016-0.74  c0-0.655-0.041-0.951-0.068-1.083l-0.194,0.003l0.275-0.83c0.099-0.293,0.326-0.565,0.547-0.829  c0.189-0.228,0.383-0.463,0.452-0.668c0.104-0.311,0.055-1.325-0.003-1.962l-1.148-1.009l-0.498-0.999  c-0.093-0.187-0.146-0.221-0.149-0.221c0.016,0.016-0.058,0.084-0.107,0.127c-0.157,0.142-0.372,0.336-0.684,0.336  c-0.151,0-0.309-0.048-0.462-0.139c-0.327-0.197-0.491-0.43-0.491-0.695c0-0.18,0.079-0.334,0.172-0.452  c-0.427-0.215-1.186-0.631-1.877-1.204c-0.927-0.776-1.868-0.943-1.879-0.946l-1.788,0.005c-0.631,0-1.112-0.576-1.297-0.832  L42.6,56.301l-0.501-0.167c-0.519-0.173-1.345-0.668-1.381-0.688c-0.079-0.044-2.206-1.196-3.222-2.383  c-0.443-0.516-0.587-0.868-0.463-1.138c0.035-0.076,0.119-0.192,0.299-0.248c-0.509-1.308-1.151-2.665-1.619-3.344l0.052,0.332  c0.053,0.111,0.225,0.471,0.387,0.877c0.363,0.936,0.33,1.27,0.272,1.441c-0.048,0.147-0.197,0.393-0.655,0.393  c-0.439,0-0.985-0.232-1.011-0.243l-0.079-0.053l-0.498-0.498c-0.511-0.511-0.85-1.017-0.862-1.038  c-0.027-0.042-0.693-1.046-0.867-1.83c-0.109-0.485-0.202-0.602-0.375-0.819c-0.075-0.094-0.159-0.196-0.258-0.346  c-0.339-0.509-1.147-2.289-1.184-2.364l-0.022-0.104v-1.244c-0.175-0.226-0.73-0.969-1.297-1.96  c-0.585-1.019-0.463-1.608-0.372-1.828l-0.162-1.294l0.339-2.034c0.167-1.007,0.493-1.992,0.508-2.033l0.969-2.263l-0.303-0.908  c-0.281-0.84-0.805-0.996-0.827-1.002l-0.182-0.051l-0.002-0.191v-6.252l-0.464-0.773c-0.253-0.422-0.315-0.683-0.207-0.874  c0.01-0.019,0.02-0.034,0.032-0.049c-0.384-0.541-0.854-1.04-1.072-1.04c-0.225,0.213-0.411,0.309-0.599,0.309  c-0.143,0-0.25-0.056-0.334-0.128l-1.795,1.196l-1.956,1.14l-0.799,1.315c-0.511,0.842-0.756,0.96-1.175,1.115  c-0.238,0.086-0.534,0.194-1.051,0.582c-0.626,0.47-0.728,0.773-0.733,0.912c-0.002,0.122,0.066,0.183,0.073,0.189l0.322,0.273  l-0.39,0.153c-0.056,0.023-1.354,0.509-2.023,0.676c-0.217,0.054-0.401,0.081-0.551,0.081c-0.329,0-0.443-0.134-0.483-0.213  l-0.021-0.065l-0.266-1.414l0.289-0.573c0.25-0.501,1.537-1.313,1.937-1.558l0.509-1.156l0.799-0.931l-1.563-0.859l-0.229-0.073  c0.938-1.072,1.93-2.094,2.977-3.061l0.018,0.006l1.371-0.458l0.839-0.991l3.495-2.329l0.814-0.653  c0.842-0.675,1.083-0.712,1.972-0.859l0.14-0.021c0.285-0.049,0.486-0.147,0.577-0.284c0.075-0.119,0.053-0.243,0.053-0.243  l-0.076-0.311h1.484c0-0.003,0.989-0.167,1.996-0.167l0.933,0.023c0.016,0.005,1.467,0.644,2.729,0.644c0.155,0,0.286,0,0.382-0.002  c0.078-0.139,0.268-0.228,0.536-0.318l0.372-0.121c0.784-0.256,1.302-0.425,1.694-0.817c0.235-0.233,0.678-0.349,1.355-0.349  c0.651,0,1.292,0.108,1.319,0.113l0.208,0.035v0.52c0.253,0.063,0.759,0.164,1.383,0.164c0.425,0,0.837-0.049,1.228-0.14  l-0.456-1.057l1.234-1.212l1.378,0.498l0.569-0.282c0.231-0.117,0.543-0.175,0.925-0.175c0.544,0,1.08,0.116,1.215,0.146h6.124  c0.604,0,1.268,0.238,1.971,0.708c0.105,0.071,0.25,0.106,0.427,0.106c0.339,0,0.671-0.129,0.673-0.132l0.091-0.015h0.167  c0.087,0,0.261,0,1.103,0.829h0.797l2.557,1.535l0.918,0.73l0.68,2.192l0.653,1.162l1.044,1.736l-0.197,1.141l-0.42,1.049  l-0.223-0.073c-0.011-0.002-0.994-0.328-2.121-0.487l-1.219,0.002l-1.067-0.89l-0.85-1.011c-0.134-0.113-0.913-0.765-1.845-1.847  c-0.239-0.284-0.462-0.433-0.642-0.433c-0.266,0-0.435,0.364-0.435,0.367l-0.031,0.067l-1.558,1.04l-0.96,0.969  c-0.044,0.032-1.151,0.834-1.614,1.838c-0.146,0.313-0.229,0.501-0.28,0.608l1.041,1.49l1.03,0.344l0.693,1.73  c0.212,0.237,1.507,1.671,1.956,2.122c0.324,0.323,0.729,0.576,0.946,0.7l1.143-1.146c0.046-0.23,0.183-0.989,0.317-2.072  c0.032-0.258,0.05-0.449,0.06-0.597l-0.381,0.383l0.723-2.167l1.593,0.012l2.924,1.058l1.163,1.165l1.216,1.389l0.017,0.059  c0.007,0.027,0.171,0.702,0.171,1.394c0,0.639,0,0.771,0.473,1.717c0.395,0.786,1.101,1.492,1.887,1.886  c0.607,0.304,0.69,0.962,0.647,1.341l0.744,1.313v2.001l-2.698-1.616l-1.113-1.429l-0.888-0.223l0.405,0.355l0.974,1.363  l-0.195,0.147c-0.03,0.021-0.705,0.523-1.236,0.702c-0.476,0.157-1.126,0.481-1.133,0.485l-0.051,0.025h-3.284l-0.737,0.737  l-0.482,0.807l-0.665,1.16c-0.023,0.04-0.544,0.896-1.419,1.421c-0.157,0.094-0.248,0.193-0.248,0.266  c-0.002,0.104,0.147,0.243,0.248,0.304l0.119,0.073l0.003,1.811l-2.324,0.893l-2.114,1.211l0.763,2.135l0.367,1.459l-0.821,1.233  l-1.33-0.284c-0.412-0.09-0.711-0.286-0.894-0.588c-0.217-0.361-0.191-0.775-0.159-0.994c-0.199-0.204-0.664-0.7-0.933-1.104  c-0.21-0.314-0.9-0.388-1.125-0.388h-0.498c-0.443,0-2.402,0.48-3.326,0.816c-0.442,0.16-0.574,0.397-0.74,0.698  c-0.135,0.245-0.286,0.521-0.61,0.764c-0.573,0.43-1.294,1.268-1.431,1.432c-0.145,0.336-0.466,1.176-0.466,1.53v1.292l0.625,1.876  l0.844,0.562c0.264-0.05,1.013-0.205,1.591-0.463c0.635-0.282,0.794-0.554,0.797-0.556l0.043-0.059  c0.089-0.089,0.89-0.877,1.43-1.06c0.172-0.056,0.347-0.086,0.515-0.086c0.299,0,0.486,0.091,0.507,0.101l0.065,0.046l0.933,0.934  l-0.202,0.801l-0.321,1.124l0.132,1.023h1.22l0.904,0.948l0.781,0.622c0.195,0.084,1.202,0.525,1.675,0.84  c0.417,0.278,1.208,0.683,1.419,0.791h0.439c0.384,0,0.652-0.261,0.655-0.261l1.195-0.859l1.188-0.677  c0.401-0.231,0.684-0.33,0.942-0.33c0.205,0,0.367,0.063,0.521,0.127c0.195,0.081,0.416,0.17,0.822,0.17h1.998  c0.458,0,0.902,0.235,1.069,0.331h1.494l1.78,1.083l1.434,1.593l1.563,0.185l-0.055,0.875c0.02,0.153,0.105,0.918-0.062,1.421  c-0.061,0.18-0.033,0.495,0,0.897c0.049,0.539,0.104,1.208,0.01,2.046c-0.123,1.123-0.538,1.446-0.829,1.53v1.163l-1.498,2.994  v1.007l-0.699,1.221l-1.007,1.513c-0.286,0.43-1.039,1.441-1.27,1.753c0.043,0.229,0.111,0.751-0.03,1.184  c-0.185,0.548-0.705,1.074-0.729,1.095c-0.498,0.5-1.328,1.41-1.436,1.734c-0.165,0.491-0.711,1.075-0.86,1.229l-0.98,2.125  l-0.29,0.438c-1.696,0.695-3.448,1.281-5.252,1.742l0.117-0.427l0.331-0.499C57.967,84.927,57.957,84.715,57.929,84.147z   M65.557,50.394v1.911l-0.534,0.891c-0.25,0.42-0.304,0.506-0.483,0.506c-0.115,0-0.189-0.073-0.22-0.104  c-0.038-0.038-0.058-0.084-0.433,0.04c-0.293,0.099-0.49,0.141-0.652,0.141c-0.401,0-0.563-0.248-0.769-0.563  c-0.089-0.134-0.194-0.299-0.35-0.49c-0.204-0.256-0.325-0.275-0.358-0.275c-0.094,0-0.186,0.146-0.213,0.212l-0.065,0.154  l-4.431,0.003l-1.163-1.166h-0.728c-0.162-0.006-0.157,0.003-0.711-0.85c-0.458-0.708-0.59-1.098-0.453-1.348  c0.04-0.076,0.145-0.202,0.374-0.202c0.523,0,1.667,0.801,2.03,1.067l0.58-0.019c0.712-0.023,0.872,0,0.872,0h0.966l1.129,0.111  c0.113-0.043,0.348-0.111,0.702-0.111c0.277,0,0.579,0.04,0.896,0.124c0.187,0.048,0.578,0.109,1.372,0.109  c1.111,0,2.355-0.114,2.368-0.116L65.557,50.394z"/><text x="0" y="110" fill="#000000" font-size="5px" font-weight="bold" font-family="'Helvetica Neue', Helvetica, Arial-Unicode, Arial, Sans-serif">Created by Guilherme Furtado</text><text x="0" y="115" fill="#000000" font-size="5px" font-weight="bold" font-family="'Helvetica Neue', Helvetica, Arial-Unicode, Arial, Sans-serif">from the Noun Project</text></svg>